# xmcd
#
# Track frame offsets:
#	150
#	17710
#	36947
#	59632
#	76122
#	106357
#
# Disc length: 1729 seconds
#
# Revision: 0
# Processed by: cddbd v1.4PL0 Copyright (c) Steve Scherf et al.
# Submitted via: dBpowerAMP V4.0
#
DISCID=4506bf06
DTITLE=Jeff Fetterman Band - The Long Hard Road
DYEAR=2000
DGENRE=Blues
TTITLE0=Hell Bound Train
TTITLE1=Leavin Home
TTITLE2=These Arms of Mine
TTITLE3=Ride With The Wind
TTITLE4=Real Love
TTITLE5=Maria
EXTD=
EXTT0=
EXTT1=
EXTT2=
EXTT3=
EXTT4=
EXTT5=
PLAYORDER=
